<?xml version="1.0" encoding="UTF-8"?>
<svg width="664px" height="515px" viewBox="0 0 664 515" version="1.1" xmlns="http://www.w3.org/2000/svg" xmlns:xlink="http://www.w3.org/1999/xlink">
    <!-- Generator: Sketch 58 (84663) - https://sketch.com -->
    <title>Landing Page Main Image</title>
    <desc>Created with Sketch.</desc>
    <g id="Landing-Page-Main-Image" stroke="none" stroke-width="1" fill="none" fill-rule="evenodd">
        <rect fill="#EEEEEE" x="0" y="0" width="664" height="515"></rect>
        <rect id="Rectangle" fill="#1976D2" x="0" y="0" width="63" height="515"></rect>
        <rect id="Rectangle" fill="#1976D2" x="0" y="0" width="144" height="515"></rect>
        <rect id="Rectangle-Copy-2" fill="#1976D2" x="0" y="50" width="144" height="45"></rect>
        <rect id="Rectangle" fill="#EEEEEE" x="23" y="95" width="38" height="4" rx="1"></rect>
        <rect id="Rectangle" fill="#EEEEEE" x="23" y="111" width="98" height="17" rx="1"></rect>
        <rect id="Rectangle-Copy-14" fill="#000000" x="109" y="116" width="7" height="7" rx="2"></rect>
        <rect id="Rectangle" fill="#000000" x="28" y="119" width="38" height="1" rx="0.5"></rect>
        <rect id="Rectangle" fill="#EEEEEE" x="23" y="185" width="38" height="4" rx="1"></rect>
        <rect id="Rectangle" fill="#EEEEEE" x="23" y="201" width="98" height="17" rx="1"></rect>
        <rect id="Rectangle-Copy-14" fill="#000000" x="109" y="206" width="7" height="7" rx="2"></rect>
        <rect id="Rectangle" fill="#000000" x="28" y="209" width="38" height="1" rx="0.5"></rect>
        <rect id="Rectangle" fill="#03A9F4" x="23" y="23" width="27" height="27" rx="1"></rect>
        <rect id="Rectangle-Copy-6" fill="#FFFFFF" x="56" y="34" width="65" height="4" rx="1"></rect>
        <rect id="Rectangle-Copy-5" fill="#4CAF50" x="168" y="23" width="90" height="20" rx="2"></rect>
        <rect id="Rectangle-Copy-14" fill="#FFFFFF" x="242" y="28" width="10" height="10" rx="2"></rect>
        <rect id="Rectangle-Copy-6" fill="#FFFFFF" x="174" y="32" width="56" height="2" rx="1"></rect>
        <rect id="Rectangle" fill="#000000" x="60" y="468" width="24" height="24" rx="12"></rect>
        <g id="Task-List-Card-Copy" transform="translate(448.000000, 95.000000)">
            <rect id="Rectangle" fill="#D8D8D8" x="0" y="0" width="116" height="147" rx="4"></rect>
            <rect id="Rectangle-Copy-8" fill="#1976D2" x="0" y="0" width="116" height="27" rx="4"></rect>
            <rect id="Rectangle-Copy-14" fill="#FFFFFF" x="102" y="8" width="10" height="10" rx="2"></rect>
            <rect id="Rectangle-Copy-6" fill="#FFFFFF" x="4" y="12" width="24" height="2" rx="1"></rect>
            <g id="Task-Card-Copy-6" transform="translate(4.000000, 109.000000)">
                <rect id="Rectangle-Copy-7" fill="#4CAF50" x="0" y="0" width="108" height="32" rx="4"></rect>
                <rect id="Rectangle-Copy-9" fill="#FFFFFF" x="8.05970149" y="10" width="60.75" height="2" rx="1"></rect>
                <rect id="Rectangle-Copy-10" fill="#FFFFFF" x="8.05970149" y="19" width="76.275" height="2" rx="1"></rect>
            </g>
            <g id="Task-Card-Copy" transform="translate(4.000000, 71.000000)">
                <rect id="Rectangle-Copy-7" fill="#4CAF50" x="0" y="0" width="108" height="32" rx="4"></rect>
                <rect id="Rectangle-Copy-9" fill="#FFFFFF" x="8.05970149" y="10" width="60.75" height="2" rx="1"></rect>
                <rect id="Rectangle-Copy-10" fill="#FFFFFF" x="8.05970149" y="19" width="76.275" height="2" rx="1"></rect>
            </g>
            <g id="Task-Card-Copy-2" transform="translate(4.000000, 33.000000)">
                <rect id="Rectangle-Copy-7" fill="#4CAF50" x="0" y="0" width="108" height="32" rx="4"></rect>
                <rect id="Rectangle-Copy-9" fill="#FFFFFF" x="8.05970149" y="10" width="60.75" height="2" rx="1"></rect>
                <rect id="Rectangle-Copy-10" fill="#FFFFFF" x="8.05970149" y="19" width="76.275" height="2" rx="1"></rect>
            </g>
        </g>
        <g id="Task-List-Card" transform="translate(308.000000, 95.000000)">
            <rect id="Rectangle" fill="#D8D8D8" x="0" y="0" width="116" height="241" rx="4"></rect>
            <rect id="Rectangle-Copy-8" fill="#1976D2" x="0" y="0" width="116" height="27" rx="4"></rect>
            <rect id="Rectangle-Copy-14" fill="#FFFFFF" x="102" y="8" width="10" height="10" rx="2"></rect>
            <rect id="Rectangle-Copy-6" fill="#FFFFFF" x="4" y="12" width="49" height="2" rx="1"></rect>
            <g id="Task-Card-Copy-3" transform="translate(4.000000, 71.000000)">
                <rect id="Rectangle-Copy-7" fill-opacity="0.8" fill="#EEEEEE" x="0" y="0" width="108" height="32" rx="4"></rect>
                <rect id="Rectangle-Copy-9" fill="#000000" x="8.05970149" y="10" width="60.75" height="2" rx="1"></rect>
                <rect id="Rectangle-Copy-10" fill="#000000" x="8.05970149" y="19" width="76.275" height="2" rx="1"></rect>
            </g>
            <g id="Task-Card-Copy-4" transform="translate(4.000000, 109.000000)">
                <rect id="Rectangle-Copy-7" fill-opacity="0.8" fill="#EEEEEE" x="0" y="0" width="108" height="41" rx="4"></rect>
                <rect id="Rectangle-Copy-9" fill="#000000" x="8.05970149" y="10" width="60.75" height="2" rx="1"></rect>
                <rect id="Rectangle-Copy-10" fill="#000000" x="8.05970149" y="19" width="76.275" height="2" rx="1"></rect>
                <rect id="Rectangle-Copy-11" fill="#000000" x="8.05970149" y="28" width="76.275" height="2" rx="1"></rect>
            </g>
            <g id="Task-Card-Copy-8" transform="translate(4.000000, 156.000000)">
                <rect id="Rectangle-Copy-7" fill-opacity="0.8" fill="#EEEEEE" x="0" y="0" width="108" height="32" rx="4"></rect>
                <rect id="Rectangle-Copy-9" fill="#000000" x="8.05970149" y="10" width="60.75" height="2" rx="1"></rect>
                <rect id="Rectangle-Copy-10" fill="#000000" x="8.05970149" y="19" width="76.275" height="2" rx="1"></rect>
            </g>
            <g id="Task-Card-Copy-7" transform="translate(4.000000, 194.000000)">
                <rect id="Rectangle-Copy-7" fill-opacity="0.8" fill="#EEEEEE" x="0" y="0" width="108" height="41" rx="4"></rect>
                <rect id="Rectangle-Copy-9" fill="#000000" x="8.05970149" y="10" width="60.75" height="2" rx="1"></rect>
                <rect id="Rectangle-Copy-10" fill="#000000" x="8.05970149" y="19" width="76.275" height="2" rx="1"></rect>
                <rect id="Rectangle-Copy-11" fill="#000000" x="8.05970149" y="28" width="76.275" height="2" rx="1"></rect>
            </g>
            <g id="Task-Card-Copy" transform="translate(4.000000, 33.000000)">
                <rect id="Rectangle-Copy-7" fill-opacity="0.8" fill="#EEEEEE" x="0" y="0" width="108" height="32" rx="4"></rect>
                <rect id="Rectangle-Copy-9" fill="#000000" x="8.05970149" y="10" width="60.75" height="2" rx="1"></rect>
                <rect id="Rectangle-Copy-10" fill="#000000" x="8.05970149" y="19" width="76.275" height="2" rx="1"></rect>
            </g>
        </g>
        <g id="Task-List-Card-Copy-2" transform="translate(168.000000, 95.000000)">
            <rect id="Rectangle" fill="#D8D8D8" x="0" y="0" width="116" height="194" rx="4"></rect>
            <rect id="Rectangle-Copy-8" fill="#1976D2" x="0" y="0" width="116" height="27" rx="4"></rect>
            <rect id="Rectangle-Copy-14" fill="#FFFFFF" x="102" y="8" width="10" height="10" rx="2"></rect>
            <rect id="Rectangle-Copy-6" fill="#FFFFFF" x="4" y="12" width="60" height="2" rx="1"></rect>
            <g id="Task-Card-Copy-5" transform="translate(4.000000, 156.000000)">
                <rect id="Rectangle-Copy-7" fill-opacity="0.8" fill="#A8A8A8" x="0" y="0" width="108" height="32" rx="4"></rect>
                <rect id="Rectangle-Copy-9" fill="#000000" x="7" y="11" width="10" height="10" rx="1"></rect>
                <rect id="Rectangle-Copy-10" fill="#000000" x="25.7910448" y="15" width="48.358209" height="2" rx="1"></rect>
            </g>
            <g id="Task-Card-Copy-4" transform="translate(4.000000, 109.000000)">
                <rect id="Rectangle-Copy-7" fill-opacity="0.8" fill="#EEEEEE" x="0" y="0" width="108" height="41" rx="4"></rect>
                <rect id="Rectangle-Copy-9" fill="#000000" x="8.05970149" y="10" width="60.75" height="2" rx="1"></rect>
                <rect id="Rectangle-Copy-10" fill="#000000" x="8.05970149" y="19" width="76.275" height="2" rx="1"></rect>
                <rect id="Rectangle-Copy-11" fill="#000000" x="8.05970149" y="28" width="76.275" height="2" rx="1"></rect>
            </g>
            <g id="Task-Card-Copy-3" transform="translate(4.000000, 71.000000)">
                <rect id="Rectangle-Copy-7" fill-opacity="0.8" fill="#EEEEEE" x="0" y="0" width="108" height="32" rx="4"></rect>
                <rect id="Rectangle-Copy-9" fill="#000000" x="8.05970149" y="10" width="60.75" height="2" rx="1"></rect>
                <rect id="Rectangle-Copy-10" fill="#000000" x="8.05970149" y="19" width="76.275" height="2" rx="1"></rect>
            </g>
            <g id="Task-Card-Copy" transform="translate(4.000000, 33.000000)">
                <rect id="Rectangle-Copy-7" fill-opacity="0.8" fill="#EEEEEE" x="0" y="0" width="108" height="32" rx="4"></rect>
                <rect id="Rectangle-Copy-9" fill="#000000" x="8.05970149" y="10" width="60.75" height="2" rx="1"></rect>
                <rect id="Rectangle-Copy-10" fill="#000000" x="8.05970149" y="19" width="76.275" height="2" rx="1"></rect>
            </g>
        </g>
    </g>
</svg>