<?xml version="1.0" encoding="UTF-8"?>
<svg width="664px" height="515px" viewBox="0 0 664 515" version="1.1" xmlns="http://www.w3.org/2000/svg" xmlns:xlink="http://www.w3.org/1999/xlink">
    <!-- Generator: Sketch 58 (84663) - https://sketch.com -->
    <title>Landing Page Main Image</title>
    <desc>Created with Sketch.</desc>
    <g id="Landing-Page-Main-Image" stroke="none" stroke-width="1" fill="none" fill-rule="evenodd">
        <rect fill="#EEEEEE" x="0" y="0" width="664" height="515"></rect>
        <rect id="Rectangle" fill="#1976D2" x="0" y="0" width="63" height="515"></rect>
        <rect id="Rectangle" fill="#1976D2" x="0" y="0" width="72" height="515"></rect>
        <rect id="Rectangle-Copy-2" fill="#1976D2" x="0" y="50" width="72" height="45"></rect>
        <rect id="Rectangle" fill="#EEEEEE" x="23" y="95" width="27" height="27" rx="1"></rect>
        <rect id="Rectangle" fill="#03A9F4" x="23" y="23" width="27" height="27" rx="1"></rect>
        <rect id="Rectangle-Copy" fill="#EEEEEE" x="23" y="162" width="27" height="27" rx="1"></rect>
        <rect id="Rectangle-Copy-5" fill="#4CAF50" x="117" y="26" width="90" height="20" rx="2"></rect>
        <rect id="Rectangle-Copy-14" fill="#FFFFFF" x="191" y="31" width="10" height="10" rx="2"></rect>
        <rect id="Rectangle-Copy-6" fill="#FFFFFF" x="123" y="35" width="56" height="2" rx="1"></rect>
        <rect id="Rectangle" fill="#000000" x="24" y="468" width="24" height="24" rx="12"></rect>
        <rect id="Rectangle" fill="#BBBBBB" x="66" y="66" width="12" height="12" rx="6"></rect>
        <g id="Task-List-Card-Copy" transform="translate(461.000000, 95.000000)">
            <rect id="Rectangle" fill="#D8D8D8" x="0" y="0" width="144" height="147" rx="4"></rect>
            <rect id="Rectangle-Copy-8" fill="#1976D2" x="0" y="0" width="144" height="27" rx="4"></rect>
            <rect id="Rectangle-Copy-14" fill="#FFFFFF" x="127" y="7" width="12" height="12" rx="2"></rect>
            <rect id="Rectangle-Copy-6" fill="#FFFFFF" x="5" y="12" width="30" height="2" rx="1"></rect>
            <g id="Task-Card-Copy-6" transform="translate(5.000000, 109.000000)">
                <rect id="Rectangle-Copy-7" fill="#4CAF50" x="0" y="0" width="134" height="32" rx="4"></rect>
                <rect id="Rectangle-Copy-9" fill="#FFFFFF" x="10" y="10" width="75.375" height="2" rx="1"></rect>
                <rect id="Rectangle-Copy-10" fill="#FFFFFF" x="10" y="19" width="94.6375" height="2" rx="1"></rect>
            </g>
            <g id="Task-Card-Copy" transform="translate(5.000000, 71.000000)">
                <rect id="Rectangle-Copy-7" fill="#4CAF50" x="0" y="0" width="134" height="32" rx="4"></rect>
                <rect id="Rectangle-Copy-9" fill="#FFFFFF" x="10" y="10" width="75.375" height="2" rx="1"></rect>
                <rect id="Rectangle-Copy-10" fill="#FFFFFF" x="10" y="19" width="94.6375" height="2" rx="1"></rect>
            </g>
            <g id="Task-Card-Copy-2" transform="translate(5.000000, 33.000000)">
                <rect id="Rectangle-Copy-7" fill="#4CAF50" x="0" y="0" width="134" height="32" rx="4"></rect>
                <rect id="Rectangle-Copy-9" fill="#FFFFFF" x="10" y="10" width="75.375" height="2" rx="1"></rect>
                <rect id="Rectangle-Copy-10" fill="#FFFFFF" x="10" y="19" width="94.6375" height="2" rx="1"></rect>
            </g>
        </g>
        <g id="Task-List-Card" transform="translate(291.000000, 95.000000)">
            <rect id="Rectangle" fill="#D8D8D8" x="0" y="0" width="144" height="241" rx="4"></rect>
            <rect id="Rectangle-Copy-8" fill="#1976D2" x="0" y="0" width="144" height="27" rx="4"></rect>
            <rect id="Rectangle-Copy-14" fill="#FFFFFF" x="127" y="7" width="12" height="12" rx="2"></rect>
            <rect id="Rectangle-Copy-6" fill="#FFFFFF" x="5" y="12" width="60" height="2" rx="1"></rect>
            <g id="Task-Card-Copy-3" transform="translate(5.000000, 71.000000)">
                <rect id="Rectangle-Copy-7" fill-opacity="0.8" fill="#EEEEEE" x="0" y="0" width="134" height="32" rx="4"></rect>
                <rect id="Rectangle-Copy-9" fill="#000000" x="10" y="10" width="75.375" height="2" rx="1"></rect>
                <rect id="Rectangle-Copy-10" fill="#000000" x="10" y="19" width="94.6375" height="2" rx="1"></rect>
            </g>
            <g id="Task-Card-Copy-4" transform="translate(5.000000, 109.000000)">
                <rect id="Rectangle-Copy-7" fill-opacity="0.8" fill="#EEEEEE" x="0" y="0" width="134" height="41" rx="4"></rect>
                <rect id="Rectangle-Copy-9" fill="#000000" x="10" y="10" width="75.375" height="2" rx="1"></rect>
                <rect id="Rectangle-Copy-10" fill="#000000" x="10" y="19" width="94.6375" height="2" rx="1"></rect>
                <rect id="Rectangle-Copy-11" fill="#000000" x="10" y="28" width="94.6375" height="2" rx="1"></rect>
            </g>
            <g id="Task-Card-Copy-8" transform="translate(5.000000, 156.000000)">
                <rect id="Rectangle-Copy-7" fill-opacity="0.8" fill="#EEEEEE" x="0" y="0" width="134" height="32" rx="4"></rect>
                <rect id="Rectangle-Copy-9" fill="#000000" x="10" y="10" width="75.375" height="2" rx="1"></rect>
                <rect id="Rectangle-Copy-10" fill="#000000" x="10" y="19" width="94.6375" height="2" rx="1"></rect>
            </g>
            <g id="Task-Card-Copy-7" transform="translate(5.000000, 194.000000)">
                <rect id="Rectangle-Copy-7" fill-opacity="0.8" fill="#EEEEEE" x="0" y="0" width="134" height="41" rx="4"></rect>
                <rect id="Rectangle-Copy-9" fill="#000000" x="10" y="10" width="75.375" height="2" rx="1"></rect>
                <rect id="Rectangle-Copy-10" fill="#000000" x="10" y="19" width="94.6375" height="2" rx="1"></rect>
                <rect id="Rectangle-Copy-11" fill="#000000" x="10" y="28" width="94.6375" height="2" rx="1"></rect>
            </g>
            <g id="Task-Card-Copy" transform="translate(5.000000, 33.000000)">
                <rect id="Rectangle-Copy-7" fill-opacity="0.8" fill="#EEEEEE" x="0" y="0" width="134" height="32" rx="4"></rect>
                <rect id="Rectangle-Copy-9" fill="#000000" x="10" y="10" width="75.375" height="2" rx="1"></rect>
                <rect id="Rectangle-Copy-10" fill="#000000" x="10" y="19" width="94.6375" height="2" rx="1"></rect>
            </g>
        </g>
        <g id="Task-List-Card-Copy-2" transform="translate(121.000000, 95.000000)">
            <rect id="Rectangle" fill="#D8D8D8" x="0" y="0" width="144" height="194" rx="4"></rect>
            <rect id="Rectangle-Copy-8" fill="#1976D2" x="0" y="0" width="144" height="27" rx="4"></rect>
            <rect id="Rectangle-Copy-14" fill="#FFFFFF" x="127" y="7" width="12" height="12" rx="2"></rect>
            <rect id="Rectangle-Copy-6" fill="#FFFFFF" x="5" y="12" width="75" height="2" rx="1"></rect>
            <g id="Task-Card-Copy-5" transform="translate(5.000000, 156.000000)">
                <rect id="Rectangle-Copy-7" fill-opacity="0.8" fill="#A8A8A8" x="0" y="0" width="134" height="32" rx="4"></rect>
                <rect id="Rectangle-Copy-9" fill="#000000" x="10" y="10" width="12" height="12" rx="1"></rect>
                <rect id="Rectangle-Copy-10" fill="#000000" x="32" y="15" width="60" height="2" rx="1"></rect>
            </g>
            <g id="Task-Card-Copy-4" transform="translate(5.000000, 109.000000)">
                <rect id="Rectangle-Copy-7" fill-opacity="0.8" fill="#EEEEEE" x="0" y="0" width="134" height="41" rx="4"></rect>
                <rect id="Rectangle-Copy-9" fill="#000000" x="10" y="10" width="75.375" height="2" rx="1"></rect>
                <rect id="Rectangle-Copy-10" fill="#000000" x="10" y="19" width="94.6375" height="2" rx="1"></rect>
                <rect id="Rectangle-Copy-11" fill="#000000" x="10" y="28" width="94.6375" height="2" rx="1"></rect>
            </g>
            <g id="Task-Card-Copy-3" transform="translate(5.000000, 71.000000)">
                <rect id="Rectangle-Copy-7" fill-opacity="0.8" fill="#EEEEEE" x="0" y="0" width="134" height="32" rx="4"></rect>
                <rect id="Rectangle-Copy-9" fill="#000000" x="10" y="10" width="75.375" height="2" rx="1"></rect>
                <rect id="Rectangle-Copy-10" fill="#000000" x="10" y="19" width="94.6375" height="2" rx="1"></rect>
            </g>
            <g id="Task-Card-Copy" transform="translate(5.000000, 33.000000)">
                <rect id="Rectangle-Copy-7" fill-opacity="0.8" fill="#EEEEEE" x="0" y="0" width="134" height="32" rx="4"></rect>
                <rect id="Rectangle-Copy-9" fill="#000000" x="10" y="10" width="75.375" height="2" rx="1"></rect>
                <rect id="Rectangle-Copy-10" fill="#000000" x="10" y="19" width="94.6375" height="2" rx="1"></rect>
            </g>
        </g>
    </g>
</svg>