<?xml version="1.0" encoding="UTF-8"?>
<svg width="1920px" height="1080px" viewBox="0 0 1920 1080" version="1.1" xmlns="http://www.w3.org/2000/svg" xmlns:xlink="http://www.w3.org/1999/xlink">
    <!-- Generator: Sketch 58 (84663) - https://sketch.com -->
    <title>Landing Page</title>
    <desc>Created with Sketch.</desc>
    <g id="Landing-Page" stroke="none" stroke-width="1" fill="none" fill-rule="evenodd">
        <rect fill="#FFFFFF" x="0" y="0" width="1920" height="1080"></rect>
        <rect id="Rectangle-Copy-3" stroke="#EEEEEE" fill="#EEEEEE" x="0.5" y="0.5" width="1919" height="74"></rect>
        <rect id="Rectangle-Copy-5" stroke="#EEEEEE" fill="#EEEEEE" x="0.5" y="980.5" width="1919" height="99"></rect>
        <g id="Landing-Page-Main-Image" transform="translate(1026.000000, 299.000000)" fill-rule="nonzero">
            <rect id="Rectangle" fill="#EEEEEE" x="0" y="0" width="621" height="482"></rect>
            <rect id="Rectangle" fill="#1976D2" x="0" y="0" width="58.9201807" height="482"></rect>
            <rect id="Rectangle" fill="#1976D2" x="0" y="0" width="134.674699" height="482"></rect>
            <rect id="Rectangle-Copy-2" fill="#1976D2" x="0" y="46.7961165" width="134.674699" height="42.1165049"></rect>
            <rect id="Rectangle" fill="#EEEEEE" x="21.5105422" y="88.9126214" width="35.5391566" height="3.74368932" rx="1"></rect>
            <rect id="Rectangle" fill="#EEEEEE" x="21.5105422" y="103.887379" width="91.6536145" height="15.9106796" rx="1"></rect>
            <rect id="Rectangle-Copy-14" fill="#000000" x="101.941265" y="108.56699" width="6.54668675" height="6.55145631" rx="2"></rect>
            <rect id="Rectangle" fill="#000000" x="26.186747" y="111.374757" width="35.5391566" height="1" rx="0.5"></rect>
            <rect id="Rectangle" fill="#EEEEEE" x="21.5105422" y="173.145631" width="35.5391566" height="3.74368932" rx="1"></rect>
            <rect id="Rectangle" fill="#EEEEEE" x="21.5105422" y="188.120388" width="91.6536145" height="15.9106796" rx="1"></rect>
            <rect id="Rectangle-Copy-14" fill="#000000" x="101.941265" y="192.8" width="6.54668675" height="6.55145631" rx="2"></rect>
            <rect id="Rectangle" fill="#000000" x="26.186747" y="195.607767" width="35.5391566" height="1" rx="0.5"></rect>
            <rect id="Rectangle" fill="#03A9F4" x="21.5105422" y="21.5262136" width="25.251506" height="25.2699029" rx="1"></rect>
            <rect id="Rectangle-Copy-6" fill="#FFFFFF" x="52.373494" y="31.8213592" width="60.7906627" height="3.74368932" rx="1"></rect>
            <rect id="Rectangle-Copy-5" fill="#4CAF50" x="157.120482" y="21.5262136" width="84.1716867" height="18.7184466" rx="2"></rect>
            <rect id="Rectangle-Copy-14" fill="#FFFFFF" x="226.328313" y="26.2058252" width="9.35240964" height="9.3592233" rx="2"></rect>
            <rect id="Rectangle-Copy-6" fill="#FFFFFF" x="162.731928" y="29.9495146" width="52.373494" height="1.87184466" rx="0.93592233"></rect>
            <rect id="Rectangle" fill="#000000" x="56.1144578" y="438.01165" width="22.4457831" height="22.4621359" rx="11.2228916"></rect>
            <g id="Task-List-Card-Copy" transform="translate(418.987952, 88.912621)">
                <rect id="Rectangle" fill="#D8D8D8" x="0" y="0" width="108.487952" height="137.580583" rx="4"></rect>
                <rect id="Rectangle-Copy-8" fill="#1976D2" x="0" y="0" width="108.487952" height="25.2699029" rx="4"></rect>
                <rect id="Rectangle-Copy-14" fill="#FFFFFF" x="95.3945783" y="7.48737864" width="9.35240964" height="9.3592233" rx="2"></rect>
                <rect id="Rectangle-Copy-6" fill="#FFFFFF" x="3.74096386" y="11.231068" width="22.4457831" height="1.87184466" rx="0.93592233"></rect>
                <g id="Task-Card-Copy-6" transform="translate(3.740964, 102.015534)">
                    <rect id="Rectangle-Copy-7" fill="#4CAF50" x="0" y="0" width="101.006024" height="29.9495146" rx="4"></rect>
                    <rect id="Rectangle-Copy-9" fill="#FFFFFF" x="7.53776299" y="9.3592233" width="56.8158886" height="1.87184466" rx="0.93592233"></rect>
                    <rect id="Rectangle-Copy-10" fill="#FFFFFF" x="7.53776299" y="17.7825243" width="71.3355045" height="1.87184466" rx="0.93592233"></rect>
                </g>
                <g id="Task-Card-Copy" transform="translate(3.740964, 66.450485)">
                    <rect id="Rectangle-Copy-7" fill="#4CAF50" x="0" y="0" width="101.006024" height="29.9495146" rx="4"></rect>
                    <rect id="Rectangle-Copy-9" fill="#FFFFFF" x="7.53776299" y="9.3592233" width="56.8158886" height="1.87184466" rx="0.93592233"></rect>
                    <rect id="Rectangle-Copy-10" fill="#FFFFFF" x="7.53776299" y="17.7825243" width="71.3355045" height="1.87184466" rx="0.93592233"></rect>
                </g>
                <g id="Task-Card-Copy-2" transform="translate(3.740964, 30.885437)">
                    <rect id="Rectangle-Copy-7" fill="#4CAF50" x="0" y="0" width="101.006024" height="29.9495146" rx="4"></rect>
                    <rect id="Rectangle-Copy-9" fill="#FFFFFF" x="7.53776299" y="9.3592233" width="56.8158886" height="1.87184466" rx="0.93592233"></rect>
                    <rect id="Rectangle-Copy-10" fill="#FFFFFF" x="7.53776299" y="17.7825243" width="71.3355045" height="1.87184466" rx="0.93592233"></rect>
                </g>
            </g>
            <g id="Task-List-Card" transform="translate(288.054217, 88.912621)">
                <rect id="Rectangle" fill="#D8D8D8" x="0" y="0" width="108.487952" height="225.557282" rx="4"></rect>
                <rect id="Rectangle-Copy-8" fill="#1976D2" x="0" y="0" width="108.487952" height="25.2699029" rx="4"></rect>
                <rect id="Rectangle-Copy-14" fill="#FFFFFF" x="95.3945783" y="7.48737864" width="9.35240964" height="9.3592233" rx="2"></rect>
                <rect id="Rectangle-Copy-6" fill="#FFFFFF" x="3.74096386" y="11.231068" width="45.8268072" height="1.87184466" rx="0.93592233"></rect>
                <g id="Task-Card-Copy-3" transform="translate(3.740964, 66.450485)">
                    <rect id="Rectangle-Copy-7" fill-opacity="0.8" fill="#EEEEEE" x="0" y="0" width="101.006024" height="29.9495146" rx="4"></rect>
                    <rect id="Rectangle-Copy-9" fill="#000000" x="7.53776299" y="9.3592233" width="56.8158886" height="1.87184466" rx="0.93592233"></rect>
                    <rect id="Rectangle-Copy-10" fill="#000000" x="7.53776299" y="17.7825243" width="71.3355045" height="1.87184466" rx="0.93592233"></rect>
                </g>
                <g id="Task-Card-Copy-4" transform="translate(3.740964, 102.015534)">
                    <rect id="Rectangle-Copy-7" fill-opacity="0.8" fill="#EEEEEE" x="0" y="0" width="101.006024" height="38.3728155" rx="4"></rect>
                    <rect id="Rectangle-Copy-9" fill="#000000" x="7.53776299" y="9.3592233" width="56.8158886" height="1.87184466" rx="0.93592233"></rect>
                    <rect id="Rectangle-Copy-10" fill="#000000" x="7.53776299" y="17.7825243" width="71.3355045" height="1.87184466" rx="0.93592233"></rect>
                    <rect id="Rectangle-Copy-11" fill="#000000" x="7.53776299" y="26.2058252" width="71.3355045" height="1.87184466" rx="0.93592233"></rect>
                </g>
                <g id="Task-Card-Copy-8" transform="translate(3.740964, 146.003883)">
                    <rect id="Rectangle-Copy-7" fill-opacity="0.8" fill="#EEEEEE" x="0" y="0" width="101.006024" height="29.9495146" rx="4"></rect>
                    <rect id="Rectangle-Copy-9" fill="#000000" x="7.53776299" y="9.3592233" width="56.8158886" height="1.87184466" rx="0.93592233"></rect>
                    <rect id="Rectangle-Copy-10" fill="#000000" x="7.53776299" y="17.7825243" width="71.3355045" height="1.87184466" rx="0.93592233"></rect>
                </g>
                <g id="Task-Card-Copy-7" transform="translate(3.740964, 181.568932)">
                    <rect id="Rectangle-Copy-7" fill-opacity="0.8" fill="#EEEEEE" x="0" y="0" width="101.006024" height="38.3728155" rx="4"></rect>
                    <rect id="Rectangle-Copy-9" fill="#000000" x="7.53776299" y="9.3592233" width="56.8158886" height="1.87184466" rx="0.93592233"></rect>
                    <rect id="Rectangle-Copy-10" fill="#000000" x="7.53776299" y="17.7825243" width="71.3355045" height="1.87184466" rx="0.93592233"></rect>
                    <rect id="Rectangle-Copy-11" fill="#000000" x="7.53776299" y="26.2058252" width="71.3355045" height="1.87184466" rx="0.93592233"></rect>
                </g>
                <g id="Task-Card-Copy" transform="translate(3.740964, 30.885437)">
                    <rect id="Rectangle-Copy-7" fill-opacity="0.8" fill="#EEEEEE" x="0" y="0" width="101.006024" height="29.9495146" rx="4"></rect>
                    <rect id="Rectangle-Copy-9" fill="#000000" x="7.53776299" y="9.3592233" width="56.8158886" height="1.87184466" rx="0.93592233"></rect>
                    <rect id="Rectangle-Copy-10" fill="#000000" x="7.53776299" y="17.7825243" width="71.3355045" height="1.87184466" rx="0.93592233"></rect>
                </g>
            </g>
            <g id="Task-List-Card-Copy-2" transform="translate(157.120482, 88.912621)">
                <rect id="Rectangle" fill="#D8D8D8" x="0" y="0" width="108.487952" height="181.568932" rx="4"></rect>
                <rect id="Rectangle-Copy-8" fill="#1976D2" x="0" y="0" width="108.487952" height="25.2699029" rx="4"></rect>
                <rect id="Rectangle-Copy-14" fill="#FFFFFF" x="95.3945783" y="7.48737864" width="9.35240964" height="9.3592233" rx="2"></rect>
                <rect id="Rectangle-Copy-6" fill="#FFFFFF" x="3.74096386" y="11.231068" width="56.1144578" height="1.87184466" rx="0.93592233"></rect>
                <g id="Task-Card-Copy-5" transform="translate(3.740964, 146.003883)">
                    <rect id="Rectangle-Copy-7" fill-opacity="0.8" fill="#A8A8A8" x="0" y="0" width="101.006024" height="29.9495146" rx="4"></rect>
                    <rect id="Rectangle-Copy-9" fill="#000000" x="6.54668675" y="10.2951456" width="9.35240964" height="9.3592233" rx="1"></rect>
                    <rect id="Rectangle-Copy-10" fill="#000000" x="24.1208416" y="14.038835" width="45.226578" height="1.87184466" rx="0.93592233"></rect>
                </g>
                <g id="Task-Card-Copy-4" transform="translate(3.740964, 102.015534)">
                    <rect id="Rectangle-Copy-7" fill-opacity="0.8" fill="#EEEEEE" x="0" y="0" width="101.006024" height="38.3728155" rx="4"></rect>
                    <rect id="Rectangle-Copy-9" fill="#000000" x="7.53776299" y="9.3592233" width="56.8158886" height="1.87184466" rx="0.93592233"></rect>
                    <rect id="Rectangle-Copy-10" fill="#000000" x="7.53776299" y="17.7825243" width="71.3355045" height="1.87184466" rx="0.93592233"></rect>
                    <rect id="Rectangle-Copy-11" fill="#000000" x="7.53776299" y="26.2058252" width="71.3355045" height="1.87184466" rx="0.93592233"></rect>
                </g>
                <g id="Task-Card-Copy-3" transform="translate(3.740964, 66.450485)">
                    <rect id="Rectangle-Copy-7" fill-opacity="0.8" fill="#EEEEEE" x="0" y="0" width="101.006024" height="29.9495146" rx="4"></rect>
                    <rect id="Rectangle-Copy-9" fill="#000000" x="7.53776299" y="9.3592233" width="56.8158886" height="1.87184466" rx="0.93592233"></rect>
                    <rect id="Rectangle-Copy-10" fill="#000000" x="7.53776299" y="17.7825243" width="71.3355045" height="1.87184466" rx="0.93592233"></rect>
                </g>
                <g id="Task-Card-Copy" transform="translate(3.740964, 30.885437)">
                    <rect id="Rectangle-Copy-7" fill-opacity="0.8" fill="#EEEEEE" x="0" y="0" width="101.006024" height="29.9495146" rx="4"></rect>
                    <rect id="Rectangle-Copy-9" fill="#000000" x="7.53776299" y="9.3592233" width="56.8158886" height="1.87184466" rx="0.93592233"></rect>
                    <rect id="Rectangle-Copy-10" fill="#000000" x="7.53776299" y="17.7825243" width="71.3355045" height="1.87184466" rx="0.93592233"></rect>
                </g>
            </g>
        </g>
        <g id="Treban-Logo-x32" transform="translate(213.000000, 21.000000)">
            <rect id="Rectangle" fill="#03A9F4" x="0" y="0" width="32" height="32" rx="1"></rect>
            <rect id="Rectangle" fill="#FFFFFF" x="4" y="4" width="5" height="24" rx="1"></rect>
            <rect id="Rectangle-Copy" fill="#FFFFFF" x="13" y="4" width="6" height="12" rx="1"></rect>
            <rect id="Rectangle-Copy-2" fill="#FFFFFF" x="23" y="4" width="5" height="24" rx="1"></rect>
        </g>
        <text id="Treban" font-family="Montserrat-Bold, Montserrat" font-size="24" font-weight="bold" fill="#000000">
            <tspan x="257.224" y="46">Treban</tspan>
        </text>
        <text id="Gestiona-tus-proyect" font-family="Montserrat-Bold, Montserrat" font-size="48" font-weight="bold" fill="#000000">
            <tspan x="272" y="346">Gestiona tus proyectos </tspan>
            <tspan x="272" y="404">de la forma mas agil</tspan>
            <tspan x="781.904" y="404" font-size="24"></tspan>
            <tspan x="272" y="462" font-size="24"></tspan>
            <tspan x="272" y="491" font-size="24">Utilizando la metodogia Scrum y Kanban</tspan>
        </text>
        <g id="Btn-Registrarse" transform="translate(272.000000, 683.000000)">
            <rect id="Rectangle" fill="#4CAF50" x="0" y="0" width="257" height="48" rx="4"></rect>
            <text id="Registrate-gratis" font-family="Montserrat-Regular, Montserrat" font-size="16" font-weight="normal" fill="#FFFFFF">
                <tspan x="61" y="30">Registrate </tspan>
                <tspan x="147.592" y="30" font-family="Montserrat-Bold, Montserrat" font-weight="bold">gratis</tspan>
            </text>
        </g>
        <g id="Btn-Iniciar-Sesion" transform="translate(1557.000000, 16.000000)">
            <rect id="Rectangle-Copy-4" fill="#1976D2" x="0" y="0" width="150" height="42" rx="4"></rect>
            <text id="Iniciar-sesion" font-family="Montserrat-Bold, Montserrat" font-size="16" font-weight="bold" fill="#FFFFFF">
                <tspan x="20" y="26">Iniciar sesion</tspan>
            </text>
        </g>
        <text id="Treban-2019" font-family="Montserrat-Bold, Montserrat" font-size="24" font-weight="bold" fill="#000000">
            <tspan x="885" y="1039">Treban 2019</tspan>
        </text>
        <rect id="Rectangle" stroke="#979797" x="0.5" y="0.5" width="1529" height="1079"></rect>
    </g>
</svg>